<svg width="164" height="91" viewBox="0 0 164 91" fill="none" xmlns="http://www.w3.org/2000/svg">
<path fill-rule="evenodd" clip-rule="evenodd" d="M140.969 12.1322L130.594 22.5031H127.629L114.289 7.68795H111.325L99.467 21.0207L83.1626 4.72607H80.1982L63.8937 21.0207L52.0359 7.68795H49.0715L35.7315 22.5031H32.767L22.3914 12.1322L3.12256 31.3916V37.3183L19.427 84.7256L25.3559 87.6875L29.8026 89.1699H133.558L138.005 87.6875L143.934 84.7256L160.238 37.3183V31.3916L140.969 12.1322Z" fill="black"/>
<path fill-rule="evenodd" clip-rule="evenodd" d="M162.731 31.2787C162.175 30.0309 157.795 25.5953 152.019 19.9871C142.981 11.2086 141.409 9.20509 140.44 9.27458C139.467 9.34406 138.358 11.2434 135.518 14.1966C132.704 17.1237 130.935 18.9274 130.296 19.5384C128.677 21.0815 128.672 20.9397 127.331 19.5384C126.949 19.1388 122.96 14.8798 119.885 11.5908C116.388 7.8472 113.757 5.02141 113.227 4.64213C112.234 3.93278 111.617 4.01096 111.027 4.72609C109.898 6.09266 108.097 8.24965 104.832 11.8803C102.614 14.3442 99.3948 17.807 99.169 18.0589C98.6131 18.6842 98.3584 18.7248 97.5941 17.9604C96.8298 17.1961 84.2512 3.14816 82.8645 1.76132C81.4778 0.374481 81.5849 0.374481 80.1982 1.76132C78.8116 3.14816 66.2329 17.1961 65.4687 17.9604C64.7044 18.7219 64.4496 18.6813 63.8938 18.0589C63.6709 17.807 60.4488 14.3442 58.2312 11.8803C54.9657 8.24965 53.165 6.09266 52.036 4.72609C51.4454 4.01096 50.8317 3.93278 49.8358 4.64213C49.306 5.02141 46.6745 7.8472 43.1774 11.5908C40.103 14.8827 36.1137 19.1388 35.7316 19.5384C34.3912 20.9397 34.3854 21.0815 32.7671 19.5384C32.1273 18.9274 30.3585 17.1237 27.5446 14.1966C24.7046 11.2434 23.5929 9.34406 22.6231 9.27458C21.6533 9.20509 20.0814 11.2086 11.0433 19.9871C5.26781 25.5953 0.887723 30.0309 0.331889 31.2787C-0.22105 32.5237 0.053972 34.7704 0.18714 35.7114C0.740079 36.8782 4.1301 46.2039 7.61853 55.6078C12.3055 68.2399 17.5367 82.392 17.9449 83.2461C18.7091 84.8414 20.1769 87.6875 21.4651 88.6082C22.9213 89.6476 25.1041 90.5857 26.8382 90.6523C27.4114 90.6754 39.5326 90.771 55.5244 90.6841C80.3285 90.5451 82.7342 90.5451 107.538 90.6841C123.53 90.7739 135.651 90.6754 136.225 90.6523C137.959 90.5828 140.141 89.6476 141.598 88.6082C142.886 87.6875 144.354 84.8414 145.118 83.2461C145.526 82.392 150.757 68.2399 155.444 55.6078C158.933 46.2039 162.323 36.8782 162.876 35.7114C163.009 34.7704 163.284 32.5237 162.731 31.2787ZM148.835 61.3897C145.879 69.6499 141.022 82.6671 140.671 83.2432C139.701 84.8385 138.098 86.1356 136.225 86.2051C135.605 86.2283 116.518 86.2891 100.489 86.2891H62.5737C46.5443 86.2891 27.4577 86.2283 26.8382 86.2051C24.9652 86.1356 23.3613 84.8385 22.3915 83.2432C22.0412 82.6671 17.1835 69.6499 14.2277 61.3897C5.9047 38.1203 4.57302 35.196 4.67434 33.5949C4.78145 31.8983 7.59826 29.4084 14.5172 22.5929C18.6107 18.5597 21.9399 15.0941 22.3915 15.0941C22.7737 15.0941 23.3179 15.7166 25.2286 17.6709C28.167 20.6704 32.0723 24.7035 32.7671 25.465C33.4619 26.2265 34.7588 26.3654 35.7316 25.465C36.2382 24.996 38.4847 22.6305 42.8879 17.6709C47.7428 12.2046 49.2713 10.673 49.8358 10.1432C51.0141 9.03427 50.6146 9.25431 51.8623 10.4327C52.4355 10.9741 54.8152 13.6117 57.3627 16.5128C60.359 19.9234 63.0977 23.1314 63.4422 23.4615C64.2441 24.2287 65.2834 24.2229 66.0476 23.4615C66.8119 22.7 79.2111 8.31045 80.233 7.24788C81.1015 6.34745 81.97 6.34745 82.8384 7.24788C83.8604 8.31045 96.2508 22.7 97.0151 23.4615C97.7794 24.2229 98.8187 24.2287 99.6206 23.4615C99.9651 23.1314 102.704 19.9234 105.7 16.5128C108.248 13.6117 110.627 10.9741 111.2 10.4327C112.448 9.25431 112.049 9.03427 113.227 10.1432C113.791 10.673 115.32 12.2046 120.175 17.6709C124.578 22.6305 126.825 24.996 127.331 25.465C128.301 26.3654 129.601 26.2265 130.296 25.465C130.99 24.7035 134.896 20.6704 137.834 17.6709C139.745 15.7195 140.289 15.0941 140.671 15.0941C141.123 15.0941 144.452 18.5597 148.546 22.5929C155.464 29.4084 158.281 31.8983 158.388 33.5949C158.49 35.196 157.158 38.1203 148.835 61.3897ZM0.158198 35.8359C0.288471 36.3281 0.25662 36.1862 0.18714 35.7085C0.0973965 35.5174 0.0829287 35.5464 0.158198 35.8359ZM162.876 35.7114C162.809 36.1862 162.777 36.3281 162.905 35.8388C162.98 35.5464 162.965 35.5174 162.876 35.7114Z" fill="white"/>
<path fill-rule="evenodd" clip-rule="evenodd" d="M62.4494 63.9926H60.9671V65.4721H62.4494V63.9926ZM136.526 62.5103H120.227V63.9898H135.044V65.4692H136.526V66.9487H138.008V77.3138H136.526V78.7933H135.044V80.2728H120.227V63.984H108.375V62.5045H100.967V63.984H106.893V75.8315H117.263V80.2728H100.964V63.984H96.5202V62.5045H80.2245V63.984H95.0409V65.4635H96.5231V66.9429H98.0054V71.3843H96.5231V72.8638H95.0409V74.3433H96.5231V75.8228H98.0054C98.0054 75.8228 97.9272 80.0151 98.0054 80.2641C98.0835 80.5131 92.0794 80.2641 92.0794 80.2641V77.3023H90.5972V75.8228H86.1534V80.2641H80.2274V63.9753H78.7451V65.4548H77.2629V63.9753H75.7807V62.4958H62.4465V63.9753H74.2985V65.4548H75.7807V66.9343H77.2629V77.2994H75.7807V78.7789H74.2985V80.2583H62.4465V78.7789H60.9642V77.2994H59.482V66.9343H60.9642V65.4548H59.482V63.9753H57.9998V62.4958H49.1094V63.9753H44.6656V62.4958H37.2574V63.9753H43.1834V69.899H44.6656V68.4195H46.1478V66.94H47.63V68.4195H49.1123V69.899H50.5945V63.9753H56.5205V80.2641H50.5945V78.7846H49.1123V77.3052H47.63V75.8257H46.1478V77.3052H44.6656V78.7846H43.1834V80.2641H37.2574V63.9753H17.9972V66.9372H19.4794V71.3785H20.9616V75.8199H22.4438V80.2612H23.9261V81.7407H25.4083V83.2202H34.2987V81.7407H37.2631V83.2202H46.1536V81.7407H47.6358V80.2612H49.1181V81.7407H50.6003V83.2202H59.4907V80.2583H60.9729V81.7378H62.4552V83.2173H77.2716V81.7378H80.2361V83.2173H89.1265V80.2554H90.6087V81.7349H92.0909V83.2144H100.981V81.7349H102.464V83.2144H120.242V81.7349H121.724V83.2144H138.02V81.7349H139.502V80.2554H140.984V75.8141H142.466V71.3727H143.949V66.9314H145.431V63.9695H136.54V62.5103H136.526ZM32.8165 78.7991H31.3343V80.2786H26.8905V78.7991H25.4083V74.3578H26.8905V72.8783H31.3343V74.3578H32.8165V78.7991ZM66.8932 75.8401H69.8576V74.3606H71.3398V69.9193H69.8576V68.4398H66.8932V69.9193H65.4109V74.3606H66.8932V75.8401ZM90.5972 71.3959H92.0794V68.434H90.5972V66.9545H86.1534V72.8783H90.5972V71.3959ZM130.6 74.3578H132.082V69.9164H130.6V68.4369H126.156V75.8401H130.6V74.3578ZM37.5584 59.1546C37.5642 59.4007 37.7148 59.56 37.8537 59.5484C39.1246 59.4586 42.4973 59.4384 46.1507 59.45C50.8058 59.4644 55.8286 59.696 56.2252 59.2531C57.1024 58.2687 57.0647 51.045 56.5205 50.6657C55.9791 50.2864 55.6838 51.8817 54.5461 52.0959C53.4055 52.3131 47.7111 51.7572 46.8426 52.2436C45.9741 52.7329 44.6685 53.6246 44.6685 53.6246C44.6685 53.6246 44.6685 42.3678 44.6685 41.285C45.7107 41.2502 46.3736 41.3081 47.1871 41.0389C48.0006 40.7667 49.9779 37.2981 50.7943 36.6843C51.4196 36.2153 52.4878 35.8853 50.5453 36.004C49.2802 36.0821 46.0581 36.14 44.6193 36.1024C44.5932 34.041 44.573 33.2969 44.5209 32.2025C44.4543 30.8301 44.3443 29.0205 44.2748 28.2533C45.0217 28.2243 45.6325 28.2214 46.1507 28.2533C46.8774 28.2967 47.0626 28.9655 47.6329 29.8833C48.044 30.5435 48.5333 31.2818 48.9183 31.5134C49.3294 31.7595 50.8492 31.5915 52.7223 31.6118C54.6706 31.635 56.8708 31.6292 57.3658 31.2673C58.4167 30.4971 57.6611 30.694 57.2182 30.8735C56.8766 31.0096 55.2148 29.8341 53.9092 28.0593C52.7802 26.5277 52.0188 24.7297 50.6495 24.2086C50.1863 24.032 48.8054 24.1391 47.5374 24.1101C45.7657 24.0696 45.1664 23.948 44.3761 24.0117C43.6437 24.0696 43.5568 24.6545 41.1164 26.9736C39.6891 28.3286 38.7801 29.1914 38.2445 29.8891C37.8306 30.4276 37.5584 30.8677 37.5613 31.3657C37.5671 32.492 37.6366 37.1273 37.709 44.2989C37.7785 51.5343 37.5498 58.7146 37.5584 59.1546ZM58.0027 58.0689C57.9795 58.7956 58.848 59.5484 59.4849 59.5484C59.8178 59.5484 61.2219 59.5455 62.6955 59.5484C64.0879 59.5513 65.4891 59.5744 65.8076 59.4992C66.7947 59.2647 66.566 59.0272 65.8076 59.007C65.0433 58.9867 65.1562 57.6896 65.1648 56.9832C65.217 52.5302 65.1793 44.6956 65.1648 43.3116C66.7223 43.1235 70.5582 42.75 72.8192 43.0163C72.8192 43.9197 72.657 57.0613 72.8192 58.0718C72.9523 58.9027 72.9379 59.5513 74.3014 59.5513C74.7472 59.5513 75.8733 59.56 77.0834 59.5629C78.8841 59.5687 80.8614 59.56 81.0177 59.5021C81.2985 59.3978 81.2551 59.1633 80.9685 59.0591C80.5748 58.9172 80.4069 58.3642 80.2274 57.429C79.9871 56.1754 80.6703 35.8534 80.2274 34.3768C80.1666 34.1712 79.9958 33.8209 79.6136 33.5024C77.2137 31.5076 71.0706 26.4003 69.1657 24.75C68.4941 24.168 68.193 24.1738 67.4084 24.9758C64.8609 27.5729 62.9531 30.0831 58.9407 33.5372C57.7306 34.5795 57.9651 35.228 58.0027 36.4006C58.1822 41.8988 58.0606 56.2304 58.0027 58.0689ZM66.0536 31.3165C66.3055 31.2644 67.753 32.7033 69.0181 33.8325C70.4974 35.1556 71.2501 35.81 72.4746 36.7944C72.8365 37.0839 72.9552 37.4487 72.9205 38.1262C72.8481 39.5072 72.8221 41.78 72.8221 41.78C72.8221 41.78 67.863 41.5919 65.1677 41.7308C65.1648 39.9937 65.1417 34.5216 64.9217 32.5007C65.4399 31.8637 65.851 31.357 66.0536 31.3165ZM78.5975 30.5753C78.9159 30.4537 79.1707 30.4942 79.5847 30.9198C80.1405 31.4902 80.9193 32.1648 81.5099 32.7468C81.9586 33.1869 82.0686 33.5285 82.0541 33.9802C81.9325 37.9119 82.2973 53.1701 81.559 57.9705C81.3651 59.227 81.2812 59.4847 82.2018 59.5021C86.8771 59.5831 89.2076 59.3573 93.0665 59.3544C95.5852 59.3544 99.2068 59.5513 100.229 59.5021C100.732 59.4789 100.871 59.4384 100.97 59.1575C101.181 58.5553 101.039 54.5714 101.167 51.902C101.23 50.5556 100.924 50.7323 100.622 51.21C100.324 51.6877 100.232 51.9106 98.9433 52.0988C98.0314 52.232 92.7973 51.8817 91.2398 52.3941C89.9805 52.8082 89.1641 53.4683 88.1769 54.418C88.8746 52.8632 88.9731 48.694 88.947 43.7517C88.9181 38.7487 88.9673 33.349 89.1641 30.7722C89.2018 30.3003 89.112 29.9181 88.7704 29.6372C87.32 28.4473 84.4859 26.0037 83.684 25.4912C83.3945 25.3059 82.9979 25.4478 82.7084 25.7199C81.5388 26.8085 79.741 29.1045 78.6467 30.1323C77.9027 30.8301 77.9461 30.8243 78.5975 30.5753ZM98.5988 30.9198C99.0389 30.8301 99.7452 31.3107 100.672 32.1532C101.282 32.7091 101.812 33.2621 102.203 33.7833C102.426 34.0815 102.49 34.2871 102.498 34.869C102.533 37.0086 102.241 57.1829 102.449 58.0689C102.658 58.952 103.202 59.3949 103.931 59.5484C104.285 59.6237 105.885 59.5223 107.536 59.5484C109.299 59.5744 110.665 59.5484 110.943 59.3515C111.325 59.0794 111.328 59.0678 110.746 59.1054C110.127 59.1459 109.872 58.703 109.857 58.0689C109.707 52.0872 110.147 37.5153 110.202 35.2135C110.248 33.3721 110.193 32.4978 109.956 32.0548C110.228 31.8261 110.428 31.635 110.795 31.3628C111.253 31.9361 112.008 32.7555 112.376 33.3374C112.825 34.0439 113.508 35.3236 113.511 35.5581C113.543 37.469 113.482 38.077 113.56 39.458C113.592 40.0052 114.4 40.6161 116.374 42.0261C117.7 42.97 118.785 43.7517 119.04 44.2468C119.434 45.0083 119.472 45.0025 119.486 44.0007C119.538 40.3758 119.628 35.7376 119.584 33.2882C119.573 32.6454 119.445 32.2806 119.089 31.7566C119.419 31.5307 119.599 31.3281 120.027 31.0646C120.528 31.4439 121.269 32.3154 121.854 33.0392C122.485 33.8238 123.276 35.1325 123.273 35.4741C123.255 36.9855 122.876 56.8703 123.186 58.066C123.498 59.2618 124.049 59.5339 124.471 59.5455C124.894 59.5571 126.558 59.5455 128.125 59.5455C129.691 59.5455 131.034 59.5947 131.384 59.3486C131.917 58.9751 131.888 58.9462 131.335 59.0533C130.814 59.1546 130.635 58.5264 130.594 58.066C130.533 57.3914 130.597 34.9414 130.545 33.9773C130.516 33.4416 128.973 30.5377 127.088 28.647C125.783 27.3384 124.35 25.8531 123.137 24.8455C122.699 24.4836 122.366 24.2462 121.605 24.944C120.682 25.7894 118.739 27.4716 117.26 28.5486C116.18 26.9157 115.78 26.4206 114.347 24.7963C113.69 24.0522 113.146 24.2202 112.668 24.6979C111.386 25.9776 110.581 26.9591 108.52 28.7455C107.727 27.7929 106.311 26.0152 104.866 24.7963C104.412 24.4141 103.952 24.1738 103.483 24.7471C103.225 25.0598 102.325 26.1513 101.112 27.5613C99.9855 28.87 99.0099 29.8631 98.4454 30.4248C97.8462 31.027 97.9272 31.0559 98.5988 30.9198ZM147.64 36.6959C148.062 36.4354 149.058 35.0196 150.454 33.6356C151.548 32.5528 152.752 31.7624 152.824 31.4149C152.911 30.9922 150.92 29.3824 148.873 27.4658C147.084 25.7894 145.408 23.6845 144.872 23.3197C144.027 22.7407 143.034 22.787 141.809 23.9133C140.868 24.7761 139.482 26.6898 137.365 28.8005C135.269 30.8909 133.37 32.463 132.525 33.4416C131.706 34.3913 130.834 36.0937 132.079 37.3416C132.429 37.6919 134.96 41.2155 139.783 44.7448C142.84 46.9829 147.628 50.2343 147.932 51.4098C148.054 51.8788 147.834 52.3102 147.735 52.84C145.292 51.9077 137.206 52.012 135.044 52.1481C133.755 52.2291 133.182 52.0149 133.118 51.3084C133.006 50.0779 133.495 49.9216 133.663 48.9401C133.877 47.6633 133.778 48.1641 133.217 49.0385C132.942 49.4699 132.812 49.5076 132.377 50.3211C131.793 51.4155 132.082 53.144 132.131 54.6148C132.195 56.6328 132.013 58.0602 132.377 58.7609C132.574 59.1373 132.939 59.3544 133.414 59.3544C136.343 59.3515 142.724 59.1488 146.351 59.5021C146.754 59.5426 147.483 59.4557 147.883 58.7609C148.502 57.6867 148.942 54.5251 149.463 52.6402C150.798 47.7993 152.101 45.6916 151.415 44.6898C150.798 43.7923 146.774 40.8709 143.537 38.326C141.158 36.4527 137.565 32.6396 137.018 31.8608C137.25 31.4757 138.196 30.4595 138.648 29.9847C139.325 29.2724 139.919 28.6789 140.425 28.3546C141.207 28.9974 143.025 30.5608 143.537 31.0704C144.328 31.855 145.353 32.9321 146.896 34.5245C147.625 35.2801 147.64 35.6363 147.391 36.3022C147.087 37.1042 147.046 37.0636 147.64 36.6959ZM18.1506 59.1546C17.8669 59.0794 17.7829 58.2947 17.754 56.7284C17.5948 48.4826 18.0811 42.1622 17.8553 37.0926C17.7598 34.9559 17.421 30.8098 17.3603 30.1323C18.0637 29.1943 19.1059 28.2214 19.5836 27.8624C20.9645 28.3952 22.7073 29.9991 24.175 31.467C25.7846 33.071 27.1047 34.7445 27.3855 35.1209C27.8979 35.8071 27.9848 36.1574 27.3855 36.7509C27.0439 37.0897 25.9612 37.9062 25.0638 38.5779C23.8624 39.4783 22.9302 40.2021 22.0009 40.9462C21.1845 41.6005 20.7763 42.1072 21.5059 42.8716C22.1978 43.5954 23.4079 44.6174 24.864 45.7842C26.4389 47.0466 27.6953 48.2423 28.2714 48.8445C28.5783 49.1659 28.5754 49.273 28.5985 49.6263C28.7404 51.8817 28.4625 56.6792 28.5667 57.5304C28.7433 58.9404 29.7276 59.5629 30.1473 59.5542C30.6482 59.5455 35.3612 59.6121 35.8765 59.505C36.525 59.3689 36.4989 59.2039 36.0241 59.1112C35.6275 59.033 35.4828 57.623 35.6304 52.646C35.6796 50.9726 35.8273 47.7183 35.3351 46.3285C35.1759 45.8827 32.5038 43.6301 31.0882 42.4778C29.1196 40.8738 27.2871 39.4522 26.9397 38.9224C28.1151 37.9785 32.0291 34.9703 32.8165 34.232C33.4331 33.6559 33.7342 32.6715 33.1118 31.716C32.7731 31.1949 30.8074 28.4038 28.9141 26.6319C25.3098 23.2589 23.4657 22.9173 22.5422 22.9781C21.6477 23.0389 19.2796 25.7691 17.505 27.57C13.9095 31.2123 11.828 32.9494 10.2444 34.5303C8.79695 35.975 8.96486 35.7347 9.45411 37.2953C11.7817 44.7014 15.5799 58.5669 16.072 59.062C16.5497 59.5426 17.2647 59.5571 17.8495 59.505C18.5877 59.4384 18.6022 59.2733 18.1506 59.1546Z" fill="white"/>
</svg>
