<svg width="236" height="91" viewBox="0 0 236 91" fill="none" xmlns="http://www.w3.org/2000/svg">
<path fill-rule="evenodd" clip-rule="evenodd" d="M45.2317 66.2737C45.3149 69.6517 43.4409 72.9256 40.1818 74.4778C35.7564 76.586 30.452 74.7219 28.3352 70.3144L0.871702 13.1392C-1.24539 8.73171 0.626237 3.44946 5.05219 1.34124C9.47809 -0.766972 14.7822 1.09652 16.8993 5.50405L30.4785 33.7739C34.2721 27.9615 40.8513 24.1174 48.3318 24.1174C60.0829 24.1174 69.6099 33.6043 69.6099 45.3074C69.6099 57.0105 60.0829 66.4974 48.3318 66.4974C47.2789 66.4974 46.2433 66.421 45.2317 66.2737ZM48.3318 52.7052C52.4341 52.7052 55.7598 49.3931 55.7598 45.3074C55.7598 41.2217 52.4341 37.9095 48.3318 37.9095C44.2288 37.9095 40.9031 41.2217 40.9031 45.3074C40.9031 49.3931 44.2288 52.7052 48.3318 52.7052Z" fill="white"/>
<path d="M186.864 66.2765C175.11 66.2765 165.582 56.7896 165.582 45.0865C165.582 33.3835 175.11 23.8965 186.864 23.8965C198.618 23.8965 208.146 33.3835 208.146 45.0865C208.146 56.7896 198.618 66.2765 186.864 66.2765ZM186.864 52.7044C190.968 52.7044 194.294 49.3923 194.294 45.3066C194.294 41.2208 190.968 37.9087 186.864 37.9087C182.761 37.9087 179.434 41.2208 179.434 45.3066C179.434 49.3923 182.761 52.7044 186.864 52.7044Z" fill="white"/>
<path fill-rule="evenodd" clip-rule="evenodd" d="M234.378 12.9189C236.495 8.51137 234.623 3.22913 230.197 1.12091C225.77 -0.987303 220.465 0.876801 218.348 5.28433L190.88 62.4595C188.762 66.867 190.634 72.1493 195.061 74.2575C199.488 76.3657 204.793 74.5022 206.91 70.0947L234.378 12.9189Z" fill="white"/>
<path fill-rule="evenodd" clip-rule="evenodd" d="M143.03 35.4791C146.45 35.3965 149.759 37.2754 151.31 40.5302L169.02 77.697C171.116 82.0953 169.207 87.34 164.757 89.4118C160.307 91.483 155.001 89.5967 152.906 85.1985L140.515 59.1947L124.297 75.3644C122.55 77.1065 120.249 77.9757 117.949 77.9701C115.65 77.9757 113.349 77.1065 111.602 75.3644L95.31 59.1195L82.8833 85.1985C80.7874 89.5967 75.4817 91.483 71.0317 89.4118C66.5816 87.34 64.6731 82.0953 66.769 77.697L84.4793 40.5302C86.0358 37.2631 89.3651 35.3817 92.7987 35.4797C95.1473 35.436 97.5089 36.3051 99.2935 38.0842L117.949 56.6864L136.606 38.0842C138.373 36.323 140.705 35.4538 143.03 35.4791Z" fill="white"/>
</svg>
