<svg width="150" height="46" viewBox="0 0 150 46" fill="none" xmlns="http://www.w3.org/2000/svg">
<g filter="url(#filter0_d_747_361)">
<path d="M53.7642 38.8779L53.7886 3.69727L64.7261 3.91699C68.0627 4.01465 70.5203 4.90169 72.0991 6.57812C73.6942 8.23828 74.4836 10.4762 74.4673 13.292C74.451 15.3428 74.0116 16.9867 73.1489 18.2236C72.3026 19.4606 71.1714 20.2663 69.7554 20.6406C71.3341 21.0312 72.563 21.8857 73.4419 23.2041C74.3371 24.5062 74.7847 26.1826 74.7847 28.2334C74.8172 31.5537 74.0034 34.109 72.3433 35.8994C70.6831 37.6898 67.9731 38.6257 64.2134 38.707L53.7642 38.8779ZM62.895 31.1875C62.895 31.1875 62.9927 31.1794 63.188 31.1631C63.3996 31.1305 63.6519 31.0573 63.9448 30.9434C64.2541 30.8294 64.5552 30.6504 64.8481 30.4062C65.1574 30.1458 65.4178 29.7878 65.6294 29.332C65.841 28.8763 65.9468 28.2822 65.9468 27.5498C65.9468 26.8988 65.841 26.3617 65.6294 25.9385C65.4178 25.499 65.1574 25.1491 64.8481 24.8887C64.5552 24.6283 64.2541 24.4329 63.9448 24.3027C63.6519 24.1725 63.3996 24.0911 63.188 24.0586C62.9927 24.026 62.895 24.0098 62.895 24.0098V31.1875ZM62.895 17.7354C62.895 17.7354 62.9845 17.7272 63.1636 17.7109C63.3589 17.6947 63.5949 17.6377 63.8716 17.54C64.1483 17.4424 64.425 17.2878 64.7017 17.0762C64.9946 16.8483 65.2306 16.5391 65.4097 16.1484C65.605 15.7415 65.7026 15.2207 65.7026 14.5859C65.7026 14.0163 65.605 13.5443 65.4097 13.1699C65.2306 12.7793 65.0028 12.4701 64.7261 12.2422C64.4494 12.0143 64.1646 11.8434 63.8716 11.7295C63.5949 11.5993 63.3589 11.5179 63.1636 11.4854C62.9845 11.4365 62.895 11.4121 62.895 11.4121V17.7354Z" fill="black"/>
<path d="M90.1655 39.9033L89.6284 33.1406L85.6978 33.3359L85.063 39.293L76.1519 38.8047L82.5728 3.16016L92.8999 3.96582L100.053 40.1475L90.1655 39.9033ZM86.7231 26.0361L88.7251 25.8408L87.7241 14.8789L86.7231 26.0361Z" fill="black"/>
<path d="M113.261 25.1084L123.344 25.7188C123.133 28.1602 122.734 30.2598 122.148 32.0176C121.513 34.0684 120.537 35.7041 119.218 36.9248C117.591 38.5687 115.434 39.4395 112.749 39.5371C110.144 39.651 107.955 39.1302 106.181 37.9746C103.17 35.9564 101.429 31.863 100.957 25.6943C100.908 24.9619 100.883 24.0179 100.883 22.8623C100.883 21.7067 100.9 20.5348 100.932 19.3467C100.981 18.1585 101.038 17.2715 101.103 16.6855C101.982 8.9707 105.262 4.86914 110.942 4.38086C111.251 4.34831 111.528 4.32389 111.772 4.30762C112.016 4.29134 112.179 4.2832 112.26 4.2832C112.325 4.2832 112.456 4.29134 112.651 4.30762C112.846 4.30762 113.058 4.30762 113.286 4.30762C113.318 4.30762 113.351 4.30762 113.383 4.30762C116.476 4.42155 118.885 5.70736 120.61 8.16504C121.326 9.23926 121.912 10.6146 122.368 12.291C122.823 13.9512 123.149 15.766 123.344 17.7354L113.261 17.9795C113.164 14.3174 112.846 12.2585 112.309 11.8027C112.179 11.6562 112.073 11.5749 111.992 11.5586C111.927 11.5423 111.829 11.583 111.699 11.6807C111.227 12.0225 110.893 13.4385 110.698 15.9287C110.649 16.596 110.616 17.7598 110.6 19.4199C110.584 21.0801 110.584 22.7484 110.6 24.4248C110.616 26.1012 110.649 27.2894 110.698 27.9893C110.877 30.5446 111.21 31.9932 111.699 32.335C112.643 32.986 113.164 30.5771 113.261 25.1084Z" fill="black"/>
<path d="M149.418 41.0752L139.213 40.0254L134.599 27.208L134.99 39.4395L125.786 39.3174L125.81 4.13672L135.014 3.91699L134.721 15.8555L138.75 3.25781L148.369 3.03809L141.362 21.3242L149.418 41.0752Z" fill="black"/>
<path d="M0 19.0909L35 0V42L0 19.0909Z" fill="black"/>
<path d="M62.145 18.5566V17.7354V11.4121V10.4302V18.5566ZM62.145 18.5566L62.9629 18.4823M62.145 18.5566L62.9629 18.4823M62.9629 18.4823L62.963 18.4823L62.963 18.4823L62.9631 18.4823L62.9631 18.4823L62.9632 18.4822L62.964 18.4822L62.9671 18.4819L62.9797 18.4807L63.0301 18.4762L63.2259 18.4583C63.2269 18.4583 63.2278 18.4582 63.2288 18.4581C63.5104 18.4343 63.8119 18.3564 64.1212 18.2473C64.4843 18.1191 64.8295 17.9226 65.1573 17.672L65.1621 17.6682C65.5635 17.356 65.8689 16.9454 66.0902 16.4638C66.3465 15.925 66.4526 15.2864 66.4526 14.5859C66.4526 13.9432 66.3444 13.3489 66.0837 12.8406C65.8675 12.3742 65.5784 11.9725 65.2029 11.6632C64.8804 11.3977 64.5357 11.1865 64.1682 11.0402C63.8815 10.9068 63.5981 10.8031 63.3281 10.7528L62.9629 18.4823ZM113.994 25.9041L122.523 26.4204C122.303 28.4914 121.938 30.2756 121.436 31.7804L121.434 31.7881L121.431 31.7958C120.828 33.7454 119.913 35.2592 118.709 36.3745L118.697 36.3855L118.685 36.3971C117.213 37.8837 115.249 38.6957 112.721 38.7876L112.716 38.7878C110.234 38.8964 108.209 38.3992 106.595 37.349C103.879 35.5258 102.171 31.7327 101.705 25.6409C101.658 24.9322 101.633 24.0076 101.633 22.8623C101.633 21.7154 101.649 20.5521 101.682 19.3724C101.73 18.192 101.786 17.3286 101.848 16.7704L113.994 25.9041ZM113.994 25.9041C113.931 28.2506 113.78 30.0187 113.53 31.1751C113.398 31.789 113.212 32.359 112.904 32.7296C112.735 32.932 112.482 33.1316 112.134 33.1788C111.787 33.226 111.489 33.1016 111.273 32.9524L111.269 32.9494C110.988 32.7529 110.806 32.4585 110.68 32.184C110.548 31.8968 110.441 31.55 110.351 31.1605C110.172 30.3805 110.04 29.3348 109.95 28.0417L109.95 28.0415C109.899 27.3169 109.866 26.1087 109.85 24.4321C109.834 22.7508 109.834 21.0777 109.85 19.4126C109.866 17.7529 109.899 16.5676 109.95 15.874L109.95 15.8701C110.049 14.6097 110.185 13.5895 110.364 12.827C110.454 12.4463 110.56 12.1072 110.689 11.8259C110.811 11.5593 110.986 11.2731 111.253 11.0773C111.344 11.0098 111.455 10.9372 111.581 10.8846C111.696 10.8367 111.907 10.7703 112.155 10.8265C112.349 10.8689 112.497 10.9664 112.589 11.0374C112.68 11.1073 112.764 11.1884 112.839 11.2708C113.107 11.5197 113.269 11.8748 113.381 12.2038C113.507 12.5759 113.608 13.0379 113.691 13.5745C113.834 14.5002 113.931 15.7158 113.987 17.2117L122.51 17.0053C122.314 15.3819 122.025 13.8771 121.644 12.4896L121.644 12.4878C121.204 10.8683 120.647 9.5759 119.991 8.5886C118.408 6.33811 116.226 5.16631 113.369 5.05762M113.994 25.9041L113.369 5.05762M113.369 5.05762H113.369H113.369H113.369H113.369H113.368H113.368H113.368H113.368H113.368H113.367H113.367H113.367H113.367H113.367H113.367H113.366H113.366H113.366H113.366H113.366H113.365H113.365H113.365H113.365H113.365H113.364H113.364H113.364H113.364H113.364H113.363H113.363H113.363H113.363H113.363H113.363H113.362H113.362H113.362H113.362H113.362H113.361H113.361H113.361H113.361H113.361H113.36H113.36H113.36H113.36H113.36H113.359H113.359H113.359H113.359H113.359H113.359H113.358H113.358H113.358H113.358H113.358H113.357H113.357H113.357H113.357H113.357H113.356H113.356H113.356H113.356H113.356H113.355H113.355H113.355H113.355H113.355H113.354H113.354H113.354H113.354H113.354H113.354H113.353H113.353H113.353H113.353H113.353H113.352H113.352H113.352H113.352H113.352H113.351H113.351H113.351H113.351H113.351H113.35H113.35H113.35H113.35H113.35H113.35H113.349H113.349H113.349H113.349H113.349H113.348H113.348H113.348H113.348H113.348H113.347H113.347H113.347H113.347H113.347H113.346H113.346H113.346H113.346H113.346H113.346H113.345H113.345H113.345H113.345H113.345H113.344H113.344H113.344H113.344H113.344H113.343H113.343H113.343H113.343H113.343H113.342H113.342H113.342H113.342H113.342H113.342H113.341H113.341H113.341H113.341H113.341H113.34H113.34H113.34H113.34H113.34H113.339H113.339H113.339H113.339H113.339H113.338H113.338H113.338H113.338H113.338H113.338H113.337H113.337H113.337H113.337H113.337H113.336H113.336H113.336H113.336H113.336H113.335H113.335H113.335H113.335H113.335H113.334H113.334H113.334H113.334H113.334H113.334H113.333H113.333H113.333H113.333H113.333H113.332H113.332H113.332H113.332H113.332H113.331H113.331H113.331H113.331H113.331H113.33H113.33H113.33H113.33H113.33H113.33H113.329H113.329H113.329H113.329H113.329H113.328H113.328H113.328H113.328H113.328H113.327H113.327H113.327H113.327H113.327H113.326H113.326H113.326H113.326H113.326H113.326H113.325H113.325H113.325H113.325H113.325H113.324H113.324H113.324H113.324H113.324H113.323H113.323H113.323H113.323H113.323H113.322H113.322H113.322H113.322H113.322H113.322H113.321H113.321H113.321H113.321H113.321H113.32H113.32H113.32H113.32H113.32H113.319H113.319H113.319H113.319H113.319H113.318H113.318H113.318H113.318H113.318H113.317H113.317H113.317H113.317H113.317H113.317H113.316H113.316H113.316H113.316H113.316H113.315H113.315H113.315H113.315H113.315H113.314H113.314H113.314H113.314H113.314H113.313H113.313H113.313H113.313H113.313H113.313H113.312H113.312H113.312H113.312H113.312H113.311H113.311H113.311H113.311H113.311H113.31H113.31H113.31H113.31H113.31H113.309H113.309H113.309H113.309H113.309H113.309H113.308H113.308H113.308H113.308H113.308H113.307H113.307H113.307H113.307H113.307H113.306H113.306H113.306H113.306H113.306H113.305H113.305H113.305H113.305H113.305H113.305H113.304H113.304H113.304H113.304H113.304H113.303H113.303H113.303H113.303H113.303H113.302H113.302H113.302H113.302H113.302H113.301H113.301H113.301H113.301H113.301H113.301H113.3H113.3H113.3H113.3H113.3H113.299H113.299H113.299H113.299H113.299H113.298H113.298H113.298H113.298H113.298H113.297H113.297H113.297H113.297H113.297H113.297H113.296H113.296H113.296H113.296H113.296H113.295H113.295H113.295H113.295H113.295H113.294H113.294H113.294H113.294H113.294H113.293H113.293H113.293H113.293H113.293H113.293H113.292H113.292H113.292H113.292H113.292H113.291H113.291H113.291H113.291H113.291H113.29H113.29H113.29H113.29H113.29H113.289H113.289H113.289H113.289H113.289H113.289H113.288H113.288H113.288H113.288H113.288H113.287H113.287H113.287H113.287H113.287H113.286H113.286H113.286H113.286H113.286H113.284H113.283H113.282H113.28H113.279H113.278H113.276H113.275H113.274H113.272H113.271H113.27H113.268H113.267H113.266H113.264H113.263H113.262H113.26H113.259H113.258H113.256H113.255H113.254H113.252H113.251H113.25H113.248H113.247H113.246H113.244H113.243H113.242H113.24H113.239H113.238H113.236H113.235H113.234H113.233H113.231H113.23H113.229H113.227H113.226H113.225H113.223H113.222H113.221H113.219H113.218H113.217H113.215H113.214H113.213H113.211H113.21H113.209H113.208H113.206H113.205H113.204H113.202H113.201H113.2H113.198H113.197H113.196H113.194H113.193H113.192H113.19H113.189H113.188H113.187H113.185H113.184H113.183H113.181H113.18H113.179H113.177H113.176H113.175H113.174H113.172H113.171H113.17H113.168H113.167H113.166H113.164H113.163H113.162H113.16H113.159H113.158H113.157H113.155H113.154H113.153H113.151H113.15H113.149H113.148H113.146H113.145H113.144H113.142H113.141H113.14H113.138H113.137H113.136H113.135H113.133H113.132H113.131H113.129H113.128H113.127H113.126H113.124H113.123H113.122H113.12H113.119H113.118H113.117H113.115H113.114H113.113H113.111H113.11H113.109H113.108H113.106H113.105H113.104H113.102H113.101H113.1H113.099H113.097H113.096H113.095H113.093H113.092H113.091H113.09H113.088H113.087H113.086H113.084H113.083H113.082H113.081H113.079H113.078H113.077H113.076H113.074H113.073H113.072H113.07H113.069H113.068H113.067H113.065H113.064H113.063H113.062H113.06H113.059H113.058H113.056H113.055H113.054H113.053H113.051H113.05H113.049H113.048H113.046H113.045H113.044H113.042H113.041H113.04H113.039H113.037H113.036H113.035H113.034H113.032H113.031H113.03H113.029H113.027H113.026H113.025H113.024H113.022H113.021H113.02H113.019H113.017H113.016H113.015H113.013H113.012H113.011H113.01H113.008H113.007H113.006H113.005H113.003H113.002H113.001H113H112.998H112.997H112.996H112.995H112.993H112.992H112.991H112.99H112.988H112.987H112.986H112.985H112.983H112.982H112.981H112.98H112.978H112.977H112.976H112.975H112.973H112.972H112.971H112.97H112.968H112.967H112.966H112.965H112.964H112.962H112.961H112.96H112.959H112.957H112.956H112.955H112.954H112.952H112.951H112.95H112.949H112.947H112.946H112.945H112.944H112.942H112.941H112.94H112.939H112.938H112.936H112.935H112.934H112.933H112.931H112.93H112.929H112.928H112.926H112.925H112.924H112.923H112.921H112.92H112.919H112.918H112.917H112.915H112.914H112.913H112.912H112.91H112.909H112.908H112.907H112.906H112.904H112.903H112.902H112.901H112.899H112.898H112.897H112.896H112.895H112.893H112.892H112.891H112.89H112.888H112.887H112.886H112.885H112.884H112.882H112.881H112.88H112.879H112.877H112.876H112.875H112.874H112.873H112.871H112.87H112.869H112.868H112.867H112.865H112.864H112.863H112.862H112.86H112.859H112.858H112.857H112.856H112.854H112.853H112.852H112.851H112.85H112.848H112.847H112.846H112.845H112.844H112.842H112.841H112.84H112.839H112.838H112.836H112.835H112.834H112.833H112.832H112.83H112.829H112.828H112.827H112.826H112.824H112.823H112.822H112.821H112.82H112.818H112.817H112.816H112.815H112.814H112.812H112.811H112.81H112.809H112.808H112.806H112.805H112.804H112.803H112.802H112.8H112.799H112.798H112.797H112.796H112.794H112.793H112.792H112.791H112.79H112.789H112.787H112.786H112.785H112.784H112.783H112.781H112.78H112.779H112.778H112.777H112.775H112.774H112.773H112.772H112.771H112.77H112.768H112.767H112.766H112.765H112.764H112.762H112.761H112.76H112.759H112.758H112.757H112.755H112.754H112.753H112.752H112.751H112.749H112.748H112.747H112.746H112.745H112.744H112.742H112.741H112.74H112.739H112.738H112.737H112.735H112.734H112.733H112.732H112.731H112.73H112.728H112.727H112.726H112.725H112.724H112.723H112.721H112.72H112.719H112.718H112.717H112.716H112.714H112.713H112.712H112.711H112.71H112.709H112.707H112.706H112.705H112.704H112.703H112.702H112.7H112.699H112.698H112.697H112.696H112.695H112.693H112.692H112.691H112.69H112.689H112.688H112.687H112.685H112.684H112.683H112.682H112.681H112.68H112.678H112.677H112.676H112.675H112.674H112.673H112.672H112.67H112.669H112.668H112.667H112.666H112.665H112.663H112.662H112.661H112.66H112.659H112.658H112.657H112.655H112.654H112.653H112.652H112.651H112.62L112.589 5.05503C112.388 5.03831 112.289 5.0332 112.26 5.0332C112.208 5.0332 112.07 5.0394 111.822 5.05596C111.589 5.07145 111.323 5.09494 111.02 5.12674L111.013 5.12749L111.006 5.1281C108.351 5.35632 106.307 6.41597 104.808 8.29162C103.289 10.191 102.279 12.9893 101.848 16.7684L113.369 5.05762ZM54.5147 38.1156L54.538 4.46247L64.7041 4.66667C64.7053 4.6667 64.7064 4.66674 64.7075 4.66677C67.9329 4.76173 70.1625 5.61566 71.5531 7.09234L71.5583 7.09774C72.9889 8.58674 73.7324 10.6202 73.7173 13.286C73.7018 15.2386 73.2837 16.7193 72.5337 17.7946L72.5299 17.8001C71.7826 18.8924 70.8013 19.5883 69.5637 19.9155L69.5752 21.3687C70.9776 21.7156 72.0458 22.462 72.8179 23.6201L72.8178 23.6202L72.8239 23.629C73.6108 24.7736 74.0347 26.2895 74.0346 28.2334L74.0347 28.2408C74.0661 31.4396 73.2822 33.7838 71.7933 35.3895C70.3308 36.9667 67.8626 37.8775 64.1993 37.9572C64.1986 37.9572 64.1979 37.9572 64.1972 37.9572L54.5147 38.1156ZM62.145 31.1875V32.0026L62.9573 31.9349L62.9574 31.9349L62.9576 31.9349L62.9584 31.9348L62.9619 31.9345L62.9756 31.9334L63.0305 31.9288L63.2503 31.9105L63.2763 31.9083L63.302 31.9044C63.5845 31.8609 63.8903 31.769 64.2106 31.6447C64.6093 31.4969 64.9816 31.2713 65.3283 30.9824L65.3312 30.9799C65.742 30.634 66.0629 30.1794 66.3097 29.6479C66.5833 29.0586 66.6968 28.3453 66.6968 27.5498C66.6968 26.8259 66.5804 26.1659 66.3027 25.608C66.0564 25.098 65.7393 24.6609 65.3392 24.3217C64.9989 24.0204 64.6339 23.7801 64.2427 23.6144C63.9201 23.4715 63.6047 23.3645 63.307 23.3181C63.3054 23.3178 63.3037 23.3176 63.302 23.3173L63.0916 23.2822L63.0366 23.273L63.0229 23.2707L63.0195 23.2702L63.0186 23.27L63.0184 23.27L63.0184 23.27L63.0183 23.27L62.145 23.1244V24.0098V31.1875ZM84.3927 38.5051L77.0405 38.1023L83.1906 3.96064L92.2745 4.66931L99.1359 39.3746L90.8597 39.1702L90.3761 33.0812L90.3184 32.3554L89.5912 32.3915L85.6605 32.5869L85.0199 32.6187L84.952 33.2565L84.3927 38.5051ZM85.9761 25.9691L85.8953 26.8705L86.796 26.7826L88.7979 26.5873L89.5398 26.5149L89.472 25.7726L88.471 14.8107L86.9771 14.8119L85.9761 25.9691ZM133.85 27.2319L134.215 38.6791L126.536 38.5773L126.56 4.86904L134.245 4.68557L133.971 15.8371L135.436 16.0839L139.301 3.99541L147.268 3.81341L140.661 21.0559L140.555 21.3328L140.667 21.6075L148.252 40.2012L139.759 39.3276L135.305 26.954L133.85 27.2319ZM1.45891 19.1495L34.25 1.26341V40.6127L1.45891 19.1495Z" stroke="white" stroke-width="1.5"/>
</g>
<defs>
<filter id="filter0_d_747_361" x="0" y="0" width="149.418" height="46" filterUnits="userSpaceOnUse" color-interpolation-filters="sRGB">
<feFlood flood-opacity="0" result="BackgroundImageFix"/>
<feColorMatrix in="SourceAlpha" type="matrix" values="0 0 0 0 0 0 0 0 0 0 0 0 0 0 0 0 0 0 127 0" result="hardAlpha"/>
<feOffset dy="4"/>
<feComposite in2="hardAlpha" operator="out"/>
<feColorMatrix type="matrix" values="0 0 0 0 1 0 0 0 0 1 0 0 0 0 1 0 0 0 1 0"/>
<feBlend mode="normal" in2="BackgroundImageFix" result="effect1_dropShadow_747_361"/>
<feBlend mode="normal" in="SourceGraphic" in2="effect1_dropShadow_747_361" result="shape"/>
</filter>
</defs>
</svg>
