<svg width="242" height="242" viewBox="0 0 242 242" fill="none" xmlns="http://www.w3.org/2000/svg">
<path fill-rule="evenodd" clip-rule="evenodd" d="M63.8013 137.244C63.8674 139.917 62.3842 142.507 59.8044 143.736C56.3012 145.404 52.1029 143.929 50.4271 140.442L28.69 95.1973C27.0142 91.7095 28.4957 87.5294 31.9985 85.8612C35.5018 84.193 39.7001 85.6678 41.3758 89.1555L52.1237 111.526C55.1266 106.926 60.334 103.884 66.2547 103.884C75.5566 103.884 83.0967 111.392 83.0967 120.653C83.0967 129.913 75.5566 137.421 66.2547 137.421C65.4217 137.421 64.602 137.361 63.8013 137.244ZM66.2547 126.507C69.5024 126.507 72.1345 123.886 72.1345 120.653C72.1345 117.42 69.5024 114.799 66.2547 114.799C63.0074 114.799 60.3753 117.42 60.3753 120.653C60.3753 123.886 63.0074 126.507 66.2547 126.507Z" fill="white"/>
<path d="M175.905 137.248C166.601 137.248 159.06 129.741 159.06 120.48C159.06 111.219 166.601 103.712 175.905 103.712C185.208 103.712 192.749 111.219 192.749 120.48C192.749 129.741 185.208 137.248 175.905 137.248ZM175.905 126.508C179.152 126.508 181.785 123.887 181.785 120.654C181.785 117.421 179.152 114.8 175.905 114.8C172.657 114.8 170.024 117.421 170.024 120.654C170.024 123.887 172.657 126.508 175.905 126.508Z" fill="white"/>
<path fill-rule="evenodd" clip-rule="evenodd" d="M213.514 95.0229C215.191 91.5352 213.709 87.3551 210.205 85.6869C206.701 84.0186 202.502 85.4935 200.826 88.9812L179.085 134.226C177.409 137.713 178.891 141.893 182.395 143.562C185.898 145.23 190.097 143.755 191.773 140.267L213.514 95.0229Z" fill="white"/>
<path fill-rule="evenodd" clip-rule="evenodd" d="M141.212 112.875C143.918 112.81 146.538 114.296 147.766 116.872L161.783 146.283C163.442 149.764 161.932 153.914 158.409 155.553C154.887 157.193 150.687 155.7 149.028 152.22L139.221 131.642L126.385 144.438C125.002 145.816 123.181 146.504 121.36 146.499C119.54 146.504 117.719 145.816 116.336 144.438L103.441 131.583L93.6051 152.22C91.9462 155.7 87.7461 157.193 84.2243 155.553C80.702 153.914 79.1916 149.764 80.8501 146.283L94.8679 116.872C96.1002 114.287 98.7354 112.798 101.453 112.876C103.312 112.841 105.182 113.529 106.593 114.937L121.36 129.657L136.127 114.937C137.525 113.543 139.371 112.855 141.212 112.875Z" fill="white"/>
</svg>
