<svg width="283" height="246" viewBox="0 0 283 246" fill="none" xmlns="http://www.w3.org/2000/svg">
<g filter="url(#filter0_d_742_76)">
<path d="M86.9828 3.43259L149.102 1.93212L106.339 224.301L40.4684 229.253L0.706055 13.1856L57.8738 10.1847L73.3286 149.728L86.9828 3.43259Z" fill="url(#paint0_linear_742_76)"/>
<path d="M152.103 148.378L205.219 146.127C205.219 156.63 206.02 164.382 207.62 169.384C209.221 174.286 212.122 176.736 216.323 176.736C222.925 176.836 225.976 171.735 225.476 161.432C225.676 156.33 224.075 151.979 220.674 148.378C217.273 144.676 211.071 140.425 202.068 135.624C201.068 135.023 200.068 134.423 199.068 133.823C185.963 126.821 177.161 121.469 172.659 117.768C160.656 106.665 154.654 90.5596 154.654 69.453C154.754 48.1464 159.805 31.5913 169.808 19.7877C179.912 7.88397 194.866 1.48198 214.672 0.581703C233.278 -0.518638 248.333 4.1328 259.836 14.536C271.34 24.9393 277.292 42.6948 277.692 67.8025L221.875 72.3039C221.975 64.5015 221.575 58.9998 220.674 55.7988C219.774 52.5978 217.823 51.0974 214.822 51.2974C209.821 51.3975 207.32 55.5988 207.32 63.9013C207.52 68.4027 209.021 72.2539 211.821 75.4549C214.722 78.5559 218.173 81.1067 222.175 83.1073C225.476 84.8078 228.827 86.4583 232.228 88.0588C243.231 92.8603 253.484 98.9622 262.987 106.364C269.589 112.066 274.441 118.918 277.542 126.921C280.643 134.823 282.243 143.226 282.343 152.129C282.543 161.231 281.743 170.334 279.943 179.437C278.242 188.54 274.891 196.943 269.889 204.645C263.788 213.448 255.885 219.6 246.182 223.101C236.479 226.602 226.526 228.152 216.323 227.752C195.616 227.352 179.762 221 168.758 208.696C157.755 196.292 152.203 176.186 152.103 148.378Z" fill="url(#paint1_linear_742_76)"/>
<path d="M68.837 150.225L77.828 150.148L91.1089 7.85329L143.605 6.58526L102.554 220.054L44.178 224.442L6.08183 17.4287L53.8517 14.9211L68.837 150.225ZM156.685 152.706L200.757 150.839C200.967 159.22 201.772 165.936 203.316 170.761L203.32 170.774L203.324 170.787C204.295 173.76 205.798 176.422 208.08 178.35C210.425 180.332 213.255 181.248 216.288 181.255C220.973 181.317 224.988 179.407 227.441 175.305C229.625 171.653 230.24 166.793 229.998 161.406C230.193 155.226 228.184 149.759 223.981 145.298C220.048 141.027 213.317 136.508 204.296 131.69L202.893 130.848L201.393 129.948L201.296 129.89L201.197 129.837C188.181 122.882 179.78 117.744 175.63 114.36C164.867 104.347 159.175 89.6321 159.173 69.4645C159.271 48.8281 164.161 33.4433 173.254 22.7119C182.338 12.009 195.966 5.95572 214.878 5.09609L214.908 5.09469L214.939 5.09287C232.596 4.04862 246.378 8.45834 256.805 17.8878C266.348 26.5179 272.083 41.3963 273.049 63.6432L226.387 67.4063C226.291 61.9497 225.875 57.5989 225.024 54.5753C224.402 52.3626 223.269 50.2122 221.291 48.6908C219.292 47.1527 216.937 46.6474 214.628 46.7818C210.657 46.8922 207.366 48.7628 205.312 52.212C203.448 55.3438 202.801 59.4374 202.801 63.9013V64.0017L202.805 64.102C203.048 69.5626 204.902 74.41 208.421 78.4307L208.47 78.4873L208.521 78.5421C211.802 82.0488 215.684 84.9111 220.129 87.1368C223.471 88.8581 226.862 90.5283 230.304 92.1477L230.362 92.175L230.42 92.2007C241.041 96.8353 250.939 102.72 260.119 109.859C266.127 115.07 270.512 121.287 273.328 128.554L273.332 128.563L273.335 128.572C276.226 135.939 277.73 143.797 277.825 152.179L277.825 152.204L277.825 152.228C278.018 160.997 277.248 169.773 275.509 178.56L275.505 178.584L275.5 178.607C273.912 187.111 270.793 194.94 266.137 202.126C260.554 210.159 253.412 215.688 244.648 218.85C235.487 222.155 226.115 223.614 216.5 223.237L216.455 223.235L216.41 223.234C196.621 222.852 182.094 216.826 172.131 205.689C162.751 195.109 157.325 177.749 156.685 152.706Z" stroke="white" stroke-width="9.03809"/>
</g>
<defs>
<filter id="filter0_d_742_76" x="0.706055" y="0.423828" width="281.667" height="245.514" filterUnits="userSpaceOnUse" color-interpolation-filters="sRGB">
<feFlood flood-opacity="0" result="BackgroundImageFix"/>
<feColorMatrix in="SourceAlpha" type="matrix" values="0 0 0 0 0 0 0 0 0 0 0 0 0 0 0 0 0 0 127 0" result="hardAlpha"/>
<feOffset dy="16.6857"/>
<feComposite in2="hardAlpha" operator="out"/>
<feColorMatrix type="matrix" values="0 0 0 0 0.390495 0 0 0 0 0.0525935 0 0 0 0 0.0525935 0 0 0 1 0"/>
<feBlend mode="normal" in2="BackgroundImageFix" result="effect1_dropShadow_742_76"/>
<feBlend mode="normal" in="SourceGraphic" in2="effect1_dropShadow_742_76" result="shape"/>
</filter>
<linearGradient id="paint0_linear_742_76" x1="144" y1="-37" x2="144" y2="288" gradientUnits="userSpaceOnUse">
<stop stop-color="#F3F303"/>
<stop offset="0.365" stop-color="#FB0101"/>
<stop offset="1"/>
</linearGradient>
<linearGradient id="paint1_linear_742_76" x1="144" y1="-37" x2="144" y2="288" gradientUnits="userSpaceOnUse">
<stop stop-color="#F3F303"/>
<stop offset="0.365" stop-color="#FB0101"/>
<stop offset="1"/>
</linearGradient>
</defs>
</svg>
